<svg xmlns="http://www.w3.org/2000/svg" xmlns:xlink="http://www.w3.org/1999/xlink" width="404pt" height="511pt" viewBox="0 0 404 511"><g id="graph0" class="graph" transform="scale(1 1) rotate(0) translate(4 507)"><title>D</title><polygon fill="#fff" stroke="transparent" points="-4 4 -4 -507 400 -507 400 4 -4 4"/><g id="clust1" class="cluster"><title>cluster_p</title><polygon fill="none" stroke="#000" points="83 -359 83 -495 237 -495 237 -359 83 -359"/><text x="160" y="-479.8" fill="#000" font-family="Times,serif" font-size="14" text-anchor="middle">Stats Server</text></g><g id="clust2" class="cluster"><title>cluster_Datadog</title></g><g id="clust6" class="cluster"><title>cluster_j</title><polygon fill="none" stroke="#000" points="8 -8 8 -334 262 -334 262 -8 8 -8"/><text x="135" y="-318.8" fill="#000" font-family="Times,serif" font-size="14" text-anchor="middle">Redis Cluster</text></g><g id="clust7" class="cluster"><title>cluster_Prometheus</title></g><g id="clust8" class="cluster"><title>cluster_redis1</title></g><g id="clust9" class="cluster"><title>cluster_redis2</title></g><g id="clust10" class="cluster"><title>cluster_redis3</title></g><g id="node1" class="node"><title>Servers_icon</title><image width="54" height="47" x="91" y="-427.5" preserveAspectRatio="xMinYMin meet" xlink:href="server.svg"/></g><g id="node2" class="node"><title>Datadog_icon</title><image width="58" height="58" x="163" y="-433" preserveAspectRatio="xMinYMin meet" xlink:href="dd-icon.svg"/></g><g id="node4" class="node"><title>internet_icon</title><image width="45" height="36" x="274.5" y="-265" preserveAspectRatio="xMinYMin meet" xlink:href="internet.svg"/></g><g id="edge2" class="edge"><title>Datadog_icon-&gt;internet_icon</title><path fill="none" stroke="red" d="M211.5036,-374.8374C230.8762,-345.8709 260.3291,-301.8317 279.115,-273.7423"/><polygon fill="red" stroke="red" points="282.163 -275.48 284.813 -265.222 276.345 -271.589 282.163 -275.48"/><text x="247.5" y="-344.6" fill="red" font-family="Times,serif" font-size="8" text-anchor="middle">submit</text></g><g id="node7" class="node"><title>Prometheus_icon</title><image width="54" height="50" x="132" y="-272" preserveAspectRatio="xMinYMin meet" xlink:href="prom.svg"/></g><g id="edge1" class="edge"><title>Datadog_icon-&gt;Prometheus_icon</title><path fill="none" stroke="#00f" d="M181.7236,-374.7962C179.2743,-367.1221 176.8403,-358.8064 175,-351 169.6458,-328.2881 165.6512,-302.3488 162.9925,-282.0572"/><polygon fill="#00f" stroke="#00f" points="166.449 -281.491 161.724 -272.008 159.504 -282.367 166.449 -281.491"/><text x="183.5" y="-344.6" fill="#00f" font-family="Times,serif" font-size="8" text-anchor="middle">poll</text></g><g id="node3" class="node"><title>enduser_icon</title><image width="54" height="50" x="342" y="-272" preserveAspectRatio="xMinYMin meet" xlink:href="computer-laptop.svg"/></g><g id="node5" class="node"><title>ddhq_icon</title><image width="58" height="58" x="305" y="-177" preserveAspectRatio="xMinYMin meet" xlink:href="dd-icon.svg"/></g><g id="edge4" class="edge"><title>enduser_icon-&gt;ddhq_icon</title><path fill="none" stroke="#00f" d="M360.0775,-221.762C356.3116,-211.1101 351.8418,-198.4668 347.6759,-186.6833"/><polygon fill="#00f" stroke="#00f" points="350.903 -185.311 344.27 -177.05 344.304 -187.645 350.903 -185.311"/><text x="364" y="-197.6" fill="#00f" font-family="Times,serif" font-size="8" text-anchor="middle">https</text></g><g id="edge3" class="edge"><title>internet_icon-&gt;ddhq_icon</title><path fill="none" stroke="red" d="M303.6139,-228.685C307.2352,-218.7116 311.8235,-206.1625 316,-195 317.0191,-192.2764 318.0774,-189.4666 319.1475,-186.639"/><polygon fill="red" stroke="red" points="322.508 -187.648 322.792 -177.057 315.966 -185.159 322.508 -187.648"/><text x="331.5" y="-197.6" fill="red" font-family="Times,serif" font-size="8" text-anchor="middle">submit</text></g><g id="node6" class="node"><title>Redis_icon</title><image width="54" height="47" x="50" y="-270.5" preserveAspectRatio="xMinYMin meet" xlink:href="server.svg"/></g><g id="node8" class="node"><title>redis1_icon</title><image width="58" height="58" x="24" y="-82" preserveAspectRatio="xMinYMin meet" xlink:href="redis-icon.svg"/></g><g id="edge5" class="edge"><title>Prometheus_icon-&gt;redis1_icon</title><path fill="none" stroke="#00f" d="M143.4432,-221.9551C135.3505,-208.709 125.4173,-192.1032 117,-177 101.1566,-148.572 84.3174,-115.8337 71.8903,-91.137"/><polygon fill="#00f" stroke="#00f" points="74.966 -89.462 67.355 -82.091 68.708 -92.599 74.966 -89.462"/><text x="128" y="-146.1" fill="#00f" font-family="Times,serif" font-size="8" text-anchor="middle">collect</text></g><g id="node9" class="node"><title>redis2_icon</title><image width="58" height="58" x="106" y="-82" preserveAspectRatio="xMinYMin meet" xlink:href="redis-icon.svg"/></g><g id="edge6" class="edge"><title>Prometheus_icon-&gt;redis2_icon</title><path fill="none" stroke="#00f" d="M155.8624,-221.6379C151.7975,-188.7797 144.6671,-131.1422 139.8892,-92.5209"/><polygon fill="#00f" stroke="#00f" points="143.31 -91.663 138.608 -82.168 136.363 -92.522 143.31 -91.663"/><text x="161" y="-146.1" fill="#00f" font-family="Times,serif" font-size="8" text-anchor="middle">collect</text></g><g id="node10" class="node"><title>redis3_icon</title><image width="58" height="58" x="188" y="-82" preserveAspectRatio="xMinYMin meet" xlink:href="redis-icon.svg"/></g><g id="edge7" class="edge"><title>Prometheus_icon-&gt;redis3_icon</title><path fill="none" stroke="#00f" d="M166.5825,-221.6379C176.4481,-188.6392 193.7853,-130.6491 205.3322,-92.0268"/><polygon fill="#00f" stroke="#00f" points="208.768 -92.752 208.28 -82.168 202.062 -90.747 208.768 -92.752"/><text x="207" y="-146.1" fill="#00f" font-family="Times,serif" font-size="8" text-anchor="middle">collect</text></g></g></svg>